# xmcd
#
# Track frame offsets:
#	150
#	15825
#	49339
#	71087
#	90227
#	121087
#	144727
#	199687
#	222212
#
# Disc length: 3300 seconds
#
# Revision: 1
# Processed by: cddbd v1.5.2PL0 Copyright (c) Steve Scherf et al.
# Submitted via: audiograbber 1.83.01
#
DISCID=760ce209
DTITLE=Buddy Guy - Sweet Tea
DYEAR=1900
DGENRE=
TTITLE0=Done Got Old
TTITLE1=Baby Please Don't Leave Me
TTITLE2=Look What All You Got
TTITLE3=Stay All Night
TTITLE4=Tramp
TTITLE5=She's Got The Devil In Her
TTITLE6=I Gotta Try You Girl
TTITLE7=Who's Been Foolin' You
TTITLE8=It's A Jungle Out There
EXTD=
EXTT0=
EXTT1=
EXTT2=
EXTT3=
EXTT4=
EXTT5=
EXTT6=
EXTT7=
EXTT8=
PLAYORDER=
